<?xml version='1.0' encoding='utf-8'?>
<svg xmlns="http://www.w3.org/2000/svg" version="1.1" width="600px" height="976px" viewBox="0 0 600 976"> <g id="layer1"> <g style="fill:rgb(0,0,0); fill-opacity:1.0; stroke-linejoin: miter"> <path d="M577.7773,212.95967C577.8044,212.95967,577.8357,213.0085,577.8705,213.1115C577.9547,213.52312,577.9573,214.1823,577.87634,214.55351C577.8404,214.67517,577.80774,214.73232,577.7795,214.73232C577.71204,214.73232,577.66974,214.40587,577.6676,213.85393C577.6653,213.28879,577.7069,212.95967,577.7773,212.95967 Z M176.16179,147.50725C175.20288,147.50725,174.54169,147.76842,173.79497,148.35997C172.93254,149.06383,172.7285,149.55907,172.73466,151.08348C172.74126,152.73155,172.9489,153.14268,174.31383,154.45567C175.18236,155.27623,176.83665,156.83519,177.99461,157.90184C179.11131,158.96849,180.80821,160.85704,181.67839,162.08958C182.54857,163.32213,183.70702,164.51231,184.24376,164.79857C184.73936,165.08495,185.15318,165.53648,185.15416,165.78368C185.15532,166.07213,185.52892,166.7711,186.02568,167.34593L186.85399,168.4138L185.95256,169.65343C185.49657,170.30501,185.0045,170.77933,184.83664,170.77933C184.82352,170.77933,184.81238,170.77643,184.80339,170.7705C182.98656,169.78893,178.15929,168.11913,175.68541,167.67577C174.65459,167.47398,172.88164,167.15147,171.72697,166.90892C168.67583,166.34435,165.74693,165.44969,163.80656,164.46873C162.86165,163.98045,161.38701,163.6169,160.47939,163.6169C160.47484,163.6169,160.47032,163.61691,160.4658,163.61693C159.10619,163.62242,158.69499,163.82994,157.91649,164.9044C156.76945,166.55699,156.41045,169.48375,157.2808,170.75755C157.98447,171.82443,163.82863,174.30823,165.69179,174.30823C165.69458,174.30823,165.69736,174.30823,165.70012,174.30821C165.7015,174.30821,165.7029,174.3082,165.70428,174.3082C166.32555,174.3082,167.97145,174.8773,169.28954,175.52989C170.60916,176.22395,172.01024,176.75352,172.34218,176.75352L172.34593,176.75352C172.67923,176.75352,173.91292,176.9953,175.06499,177.31944C176.21996,177.64452,177.95232,178.13194,178.94212,178.3751C180.46819,178.78099,180.67473,178.9038,180.22368,179.44115C179.9761,179.77414,179.635,179.92178,179.12572,179.92178C178.87627,179.92178,178.58646,179.88635,178.24754,179.81993C176.43307,179.52504,161.42664,179.06427,154.86668,179.06427C153.37773,179.06427,152.32393,179.088,151.9583,179.1428C149.7758,179.44005,149.36644,180.10081,149.37938,183.31444C149.43596,187.14598,150.01463,187.59691,155.20757,187.98802C157.55687,188.18468,161.43102,188.49864,163.82152,188.69518C166.21214,188.93272,170.62126,189.07982,173.67033,189.10863L179.15001,189.08665L178.57683,189.99547C178.24919,190.4912,177.71574,191.02892,177.38683,191.19505C176.48204,191.6107,172.94225,192.4902,170.63634,192.82907C169.52458,192.99826,167.54893,193.50058,166.27373,194.00021C164.99834,194.45859,161.95177,195.04758,159.48088,195.34592C153.26219,196.03012,152.97447,196.19614,152.82225,199.32797C152.74815,201.3884,152.87407,201.96481,153.57774,202.78598C154.3012,203.60143,154.47588,203.76892,157.92638,203.76892C158.81886,203.76892,159.93051,203.75772,161.3275,203.74362C168.57854,203.63205,174.92009,202.78256,177.46977,201.57748C178.50552,201.0736,179.82936,200.89136,182.81212,200.89136C183.0268,200.89136,183.25005,200.8923,183.4824,200.89413C187.52025,200.91904,188.30357,201.03952,190.16142,201.9797C191.31737,202.55185,192.34982,203.16574,192.47427,203.37119C192.72311,203.7822,191.82976,207.04074,191.05278,208.48593C190.80779,209.02255,190.02843,209.89096,189.3715,210.4703C187.48308,212.1672,186.8814,216.24863,187.76817,221.60117C188.54138,226.33852,189.01778,227.32077,191.71857,227.32077C192.11633,227.32077,192.56235,227.29947,193.06467,227.26572L195.08304,227.134L195.15384,224.2496C195.18314,221.28293,195.5845,218.6445,196.03629,218.27182C196.52902,217.85788,198.94681,214.59323,198.94565,214.3049C198.94278,213.60446,204.858,209.17209,205.80563,209.1683C205.97043,209.1677,206.71005,208.67014,207.36697,208.09067C208.76279,206.84909,209.74997,206.4332,212.4667,205.80417C213.49594,205.59396,215.14163,205.01059,216.08762,204.59482C217.07462,204.13754,218.06192,203.76279,218.35031,203.76157C218.6387,203.76047,219.5422,203.01523,220.32114,202.06442C221.92056,200.20395,222.74374,199.9946,232.87369,198.59421C240.45065,197.57504,242.34537,197.4437,254.08743,197.35544C255.21742,197.3509,256.27078,197.34836,257.25555,197.34836C267.15015,197.34836,270.11777,197.60513,274.28143,198.67505C277.4574,199.52759,278.81805,199.76929,285.00262,200.85681C286.94037,201.17871,289.9914,201.70203,291.80554,202.02429C296.60202,202.92558,301.22534,203.31395,307.52206,203.31395C309.39877,203.31395,311.42416,203.27945,313.6471,203.21375L323.12225,202.92847L324.15613,203.87207C324.73505,204.4054,326.51263,205.88135,328.08356,207.1936C329.69568,208.50562,332.54932,211.17212,334.5349,213.14185C338.0512,216.67102,342.4756,220.60864,343.38348,220.97583C343.63116,221.09839,344.29242,221.59021,344.87115,222.08228C346.69086,223.76416,348.71594,225.32178,351.0705,226.83667C352.351,227.65552,353.715,228.72134,354.12888,229.17288C354.54175,229.62338,355.20035,229.991,355.61252,229.991L355.61804,229.991C356.02914,229.991,356.44125,230.35931,356.6074,230.7698C356.73276,231.22256,357.10538,231.67422,357.43546,231.79654C358.59073,232.20389,358.1465,234.43045,356.46646,236.70343C355.60605,237.9018,354.5413,239.51288,354.13242,240.2973C353.72354,241.08185,352.82254,242.4451,352.12546,243.27188C351.46957,244.09854,350.44467,245.37979,349.87082,246.12381C348.43625,247.98367,347.4514,248.97647,345.56265,250.59097C341.12766,254.27567,337.3104,257.87564,334.89066,260.64578C334.23465,261.43118,332.06058,263.82962,330.0917,266.02115C328.0815,268.17178,326.4824,270.11478,326.48306,270.27957C326.4844,270.60916,324.88602,272.71683,323.20425,274.57755C322.6299,275.1979,321.27676,276.8102,320.21097,278.1741C319.14505,279.49698,316.2736,282.63968,313.85287,285.16287C311.43198,287.64468,308.4374,290.91165,307.20737,292.3997C305.97726,293.88797,304.78763,295.16995,304.6229,295.21182C304.45847,295.29483,303.84445,296.2863,303.31326,297.4008C302.74094,298.51553,302.12656,299.42447,301.92056,299.4252C301.75577,299.42593,300.9772,300.50027,300.282,301.78043C297.9913,305.9097,297.1315,307.27274,296.0237,308.43094C295.40842,309.09256,294.91666,309.7537,294.91763,310.001C294.91916,310.37173,291.67966,314.21646,289.5048,316.40897C288.8893,317.02945,288.27524,318.02078,288.11295,318.63943C287.99167,319.21683,287.5411,319.87772,287.12985,320.08548C286.7189,320.33438,286.26767,320.8306,286.10464,321.28445C285.9827,321.69693,285.36655,322.15262,284.749,322.27872C282.40256,322.7825,278.8328,326.46378,278.10202,329.1448C277.6556,330.83585,273.55368,335.38455,272.48245,335.38882C272.11166,335.3904,270.67233,336.05533,269.23343,336.8439C267.2192,338.00577,266.48026,338.66788,265.78568,340.1127C264.8868,342.01163,263.81943,342.96365,262.04947,343.38272C261.3909,343.5502,260.69315,344.2122,260.20267,345.20303C259.79404,346.0286,258.81033,347.30984,258.03018,347.9722C257.25015,348.6758,256.3881,349.46207,256.14188,349.71024C255.19803,350.66165,251.4144,352.36612,250.21957,352.371C249.5604,352.37357,248.86063,352.54117,248.738,352.78885C248.6152,352.9954,247.34134,353.82462,245.94382,354.6542C244.50491,355.44278,242.90256,356.56168,242.36911,357.09952C241.87698,357.67825,240.43796,358.42557,239.2034,358.80142C237.5986,359.30228,236.8588,359.75845,236.53214,360.50137C236.28714,361.038,235.58902,361.6177,235.01291,361.7847C234.43655,361.91068,233.65506,362.24344,233.32663,362.53323C232.99832,362.86417,231.68259,363.5286,230.40768,364.1105C229.1738,364.65115,227.77658,365.56314,227.32568,366.14185C226.87476,366.72046,226.30017,367.25842,226.01208,367.34204C225.35382,367.5918,222.60284,369.9513,219.93573,372.68127C216.32465,376.32166,215.7915,376.94177,215.09674,378.34534C214.72888,379.0885,214.27814,379.70837,214.07214,379.7091C213.86615,379.70996,213.49762,380.2882,213.17102,381.03125C212.88544,381.7329,212.02618,383.21948,211.28888,384.29382C210.55176,385.40918,209.93768,386.4004,209.93835,386.5652C209.93884,386.68884,209.24457,388.21606,208.38629,389.94995C207.52826,391.7251,206.50867,394.32483,206.10254,395.8098C205.69653,397.29468,205.20844,398.8623,205.04541,399.31616C204.3927,400.92566,203.4231,405.70886,203.4292,407.23328C203.43268,408.0985,203.14923,409.3357,202.82233,409.99634C202.49512,410.61572,202.21155,411.81165,202.21472,412.59436C202.21783,413.3772,202.01599,414.40808,201.72961,414.90356C201.19775,415.8534,200.63287,418.82214,200.43817,421.62476C200.24213,424.09766,199.87439,424.88184,198.76447,425.50427C198.14783,425.83643,197.7381,426.41492,197.74042,426.9917C197.74237,427.48608,197.29199,428.18835,196.71674,428.5614C196.18256,428.93445,195.56787,429.76086,195.40576,430.4209C195.03986,431.65833,192.94977,434.42725,191.02046,436.20673C190.36354,436.7862,188.76302,438.35822,187.49092,439.64056C186.17781,440.96442,185.02846,442.04022,184.90486,442.0407C184.65767,442.0417,176.12202,450.56354,173.49678,453.4582C172.67622,454.32672,171.77461,455.5252,171.48817,456.0208C171.24312,456.5573,170.4236,457.67303,169.72652,458.49994C168.98836,459.3681,168.2505,460.3188,168.00484,460.6905C167.80031,461.0622,166.57106,462.7563,165.30067,464.45062C162.55495,468.1286,161.03932,470.31842,159.40297,473.2503C158.74843,474.40656,157.76595,475.97614,157.27419,476.6374C156.74135,477.34003,156.33253,478.12433,156.33333,478.33038C156.3343,478.57758,155.88393,479.27985,155.35097,479.94122C154.81789,480.56146,153.99928,481.92438,153.4676,482.91522C152.97737,483.94733,152.28139,485.06256,151.91194,485.39362C151.5837,485.72467,151.05171,486.63312,150.72505,487.37604C150.43965,488.11896,150.03017,488.73846,149.86537,488.7392C149.70052,488.7398,148.71669,489.97992,147.73402,491.50824C146.75148,493.07794,145.68617,494.56537,145.39894,494.85504C145.11171,495.14447,144.86696,495.7635,144.86879,496.21674C144.87044,496.62872,144.70717,497.0003,144.50111,497.00116C144.29518,497.0019,143.4344,498.11786,142.61586,499.48077C141.79732,500.8437,140.8138,502.16608,140.40297,502.45612C140.03334,502.74603,139.29518,503.6142,138.8036,504.3166C138.27095,505.06036,137.28572,505.97076,136.54549,506.3034C135.80531,506.6772,133.30055,508.7885,130.9612,511.0639C125.78993,516.0701,124.59895,517.0225,121.10396,518.8083C119.62373,519.55585,118.10249,520.3448,117.773636,520.5522C115.47145,521.7974,110.82417,523.9174,109.959915,524.168C108.56044,524.50336,106.33974,525.5423,106.05299,525.9554C105.93025,526.1619,104.614944,526.95,103.13472,527.6977C101.61334,528.4866,100.29828,529.3158,100.21704,529.6046C100.094604,529.89343,99.76599,530.14197,99.4364,530.1433C98.983154,530.14514,97.09161,531.0592,94.54309,532.5526C94.09088,532.80164,92.69287,533.5077,91.45917,534.0895C90.225586,534.7125,87.92316,535.9166,86.32001,536.82947C84.75787,537.7009,82.66107,538.8218,81.75647,539.2787C80.81079,539.77686,78.921265,541.1854,77.56659,542.42676C76.211914,543.66833,74.93872,544.66223,74.73273,544.6631C74.23828,544.66504,68.12549,551.19946,66.60968,553.34814C65.954285,554.29834,64.68317,555.8279,63.862976,556.7788C60.417847,560.7068,59.43402,561.9468,59.435486,562.3176C59.43695,562.6885,56.892822,565.2532,50.612793,571.1703C49.2583,572.4529,45.975647,575.80347,43.350037,578.6157C40.724426,581.428,37.442444,584.94324,36.047607,586.4321C34.65271,587.9209,33.012024,589.7405,32.438293,590.52563C31.085815,592.3026,28.213562,595.2395,25.66803,597.4746C24.600464,598.3854,23.738892,599.29517,23.73938,599.4188C23.742188,600.11926,15.409363,607.8574,13.723816,608.7706C12.654907,609.3517,11.298096,610.0576,10.763611,610.34814C10.188171,610.68005,9.531555,611.34204,9.327576,611.83716C8.9599,612.6216,6.9470205,614.11273,3.5763545,616.0628C3.1653438,616.3117,2.4669187,616.8089,2.0563962,617.18134C1.6460569,617.59503,0.6995849,617.88715,-0.041992184,617.8902C-0.7424316,617.893,-1.8124998,618.1857,-2.3466184,618.5588C-3.093868,619.05414,-5.365958,619.3109,-7.510049,619.3109C-9.4925165,619.3109,-11.365555,619.0914,-11.822631,618.638C-12.194197,618.22845,-12.729364,617.94244,-13.059148,617.94244L-13.0636215,617.94244C-13.353547,617.94244,-14.094069,617.6986,-14.71179,617.3724C-15.331175,617.0452,-17.104246,616.68146,-18.67053,616.523C-20.236876,616.36444,-21.515257,616.08124,-21.516111,615.8752C-21.516905,615.66925,-22.51013,614.56085,-23.668272,613.45306C-25.436617,611.8212,-26.140696,611.4075,-27.282932,611.4075C-27.289335,611.4075,-27.295752,611.40753,-27.302181,611.40753C-28.126217,611.4108,-29.15527,611.6622,-29.607113,611.9936C-30.059078,612.325,-30.840511,612.6578,-31.37585,612.7424C-32.11706,612.8277,-32.732296,613.5306,-33.71301,615.5534C-34.81677,617.7004,-35.26324,619.3914,-35.945065,624.0087C-36.66699,628.9146,-36.819515,631.96405,-36.893433,644.3248C-36.943726,652.31824,-37.233948,662.12537,-37.547302,666.1643C-37.86084,670.16223,-38.25049,675.7258,-38.362854,678.52795C-38.475403,681.28894,-38.75299,683.96826,-38.91565,684.5044C-39.11969,684.99976,-39.48468,686.44324,-39.68573,687.68005C-42.145813,700.91565,-41.89856,711.1738,-38.98224,719.1964C-38.39917,720.75964,-37.7735,722.65247,-37.564514,723.3933C-37.18744,724.9574,-36.069397,726.35376,-33.299194,728.77344C-31.50371,730.36084,-31.256123,730.4859,-28.98152,730.4859C-28.846455,730.4859,-28.704245,730.4855,-28.554138,730.48486C-24.557617,730.4689,-21.885012,729.0986,-20.65973,726.41547C-19.67908,724.39264,-18.703676,721.05145,-18.220339,718.2889C-18.100405,717.382,-17.489504,715.608,-16.917665,714.36957C-16.304628,713.13116,-15.529604,711.1916,-15.163271,710.0777C-14.838137,708.9639,-14.061098,707.51874,-13.528078,706.85724C-12.953981,706.19574,-12.504457,705.28766,-12.5062275,704.8344C-12.5079365,704.4224,-12.344606,704.05084,-12.097353,704.04987C-11.685365,704.04816,-10.046266,701.8167,-8.696595,699.3392C-8.287538,698.596,-8.0044565,697.2763,-8.049928,696.2054C-8.054078,695.17535,-7.732606,693.1552,-7.326539,691.6702C-6.676942,689.278,-6.472108,688.9887,-5.401734,688.7784C-4.4135747,688.6097,-4.1266484,688.2376,-3.6795049,686.7115C-3.3542485,685.63885,-2.5765994,684.35846,-1.6733401,683.5721C-0.89343274,682.8272,-0.23742679,682.04193,-0.23828128,681.8359C-0.24041751,681.30023,2.5035403,677.169,3.488648,676.2586C3.8990483,675.84503,4.2672124,675.18427,4.2655034,674.7723C4.2638555,674.36017,4.549927,673.7823,4.8784184,673.4925C5.2068486,673.2028,5.4934697,672.7485,5.49231,672.46014C5.490113,671.9245,7.5457163,670.8038,8.986573,670.50946C9.439454,670.42523,9.849671,669.9705,9.930055,669.47565C10.010499,668.9809,10.502076,668.2785,11.077577,667.9466C12.186953,667.2006,12.426271,665.22186,11.55359,663.3714C11.13794,662.4665,11.219178,662.1779,12.121584,661.18536C12.695925,660.5651,13.474611,659.5319,13.884157,658.9123C14.293642,658.29254,15.1954365,657.1353,15.892885,656.3908C16.590273,655.6464,17.49225,654.53033,17.901918,653.95197C18.311403,653.3322,19.00989,652.835,19.421877,652.8333C19.875124,652.8315,20.245058,652.62396,20.244081,652.3768C20.242922,652.08844,20.611574,651.55133,21.104372,651.1374C21.597048,650.72345,22.293703,649.7729,22.7027,649.0296C23.111574,648.2452,23.809511,647.6243,24.303593,647.54C24.797672,647.4556,25.454533,646.87616,25.781559,646.2155C26.108463,645.555,26.724003,644.9345,27.13538,644.768C27.999577,644.5174,31.734562,640.95905,31.732426,640.4234C31.730778,640.0114,34.06763,637.11786,36.24182,634.7606C37.14447,633.8093,37.88208,632.8176,37.881042,632.57043C37.878113,631.82874,42.967346,626.9054,47.279663,623.46826C49.415283,621.7705,51.591675,619.94885,52.125122,619.411C52.65869,618.91455,53.233887,618.50024,53.357483,618.49976C53.522278,618.499,55.41205,617.13184,57.630066,615.4336C59.806946,613.7356,62.02533,612.11975,62.559753,611.82935C63.09424,611.5387,63.83368,611.0001,64.161804,610.62805C64.48993,610.25586,65.43494,609.5929,66.216064,609.1776C66.99719,608.76245,68.31232,607.9332,69.09265,607.312C69.87311,606.73206,71.22943,605.9026,72.09302,605.48706C72.91559,605.11304,73.614136,604.657,73.61328,604.45105C73.61261,604.28613,74.31128,603.8302,75.174805,603.4147C75.99713,602.99927,77.43573,602.1284,78.33948,601.46545C81.05078,599.4768,84.25598,597.3627,84.58557,597.36145C84.791565,597.3606,85.8186,596.61487,86.92743,595.70386C87.994995,594.7932,89.14563,594.047,89.43402,594.0458C89.76367,594.04456,90.37933,593.4652,90.87109,592.80396C91.36273,592.10156,91.978516,591.5635,92.30817,591.56213C92.59656,591.56104,93.829285,590.73193,95.06116,589.697C96.29309,588.6621,97.48456,587.83325,97.73175,587.83215C97.937744,587.8314,98.553955,587.3756,99.08722,586.79675C99.620544,586.2178,100.277954,585.76184,100.52515,585.76086C100.81354,585.75977,101.881775,585.0138,102.90816,584.10333C103.934525,583.1928,104.920425,582.4472,105.12642,582.44635C105.33241,582.4455,106.15376,581.783,106.93324,580.9559C107.671585,580.12885,109.02724,579.1346,109.89064,578.6779C110.712845,578.2214,111.41109,577.68304,111.41023,577.477C111.40938,577.27094,112.19008,576.73224,113.176956,576.2337C115.43843,575.11224,116.71272,574.36554,117.28725,573.78644C117.5334,573.53827,117.985794,573.3304,118.27425,573.32916C118.56264,573.32806,119.50862,572.9122,120.3716,572.3731C121.1935,571.8343,122.67372,571.0866,123.66109,570.71185C124.64827,570.29584,126.58052,569.2581,127.97774,568.346C129.3337,567.43414,130.69038,566.68695,130.97878,566.68585C131.22597,566.6849,131.67818,566.43585,131.92421,566.14655C132.17012,565.816,133.44502,565.23395,134.7206,564.81683C136.03719,564.35834,137.39449,563.77594,137.76411,563.48615C138.0926,563.19635,138.62715,562.9471,138.87434,562.946C139.1628,562.9449,139.69777,562.7779,140.10872,562.5291C140.47878,562.3216,142.0002,561.5738,143.4806,560.8675C148.12733,558.62384,148.70265,558.2508,151.98647,555.18866C156.58394,550.92645,157.5284,550.13983,158.72054,549.47577C159.33723,549.14374,160.28157,548.31586,160.85555,547.6132C161.4297,546.9516,162.08656,546.37213,162.29256,546.3713C162.49861,546.3704,164.0591,545.087,165.70064,543.4736C167.38362,541.90106,168.90273,540.5766,169.10872,540.57574C169.31471,540.5749,169.80794,540.2845,170.21852,539.9119C170.87538,539.3326,172.31416,538.50275,178.89235,535.0153C180.41347,534.18524,181.76942,533.2734,181.97426,532.9841C182.13795,532.6951,183.00081,532.1148,183.82332,531.74066C184.6457,531.32526,185.38551,530.8692,185.46724,530.70404C185.54897,530.5389,186.61702,529.7518,187.84993,528.9639C189.08278,528.1762,190.7676,527.05695,191.54774,526.3946C192.3281,525.7735,193.43704,524.90375,194.012,524.4483C194.587,523.99274,196.14749,522.70917,197.50278,521.6325C200.66519,519.1065,202.51254,517.451,206.16501,513.85175C209.98166,510.0871,211.41849,508.80414,212.89822,507.93292C213.51462,507.5185,214.58255,506.69012,215.23923,506.06952C217.7836,503.54608,223.32718,498.90912,224.72482,498.12067C225.50589,497.66425,227.3129,496.21503,228.66742,494.93237C231.91003,491.87048,232.32037,491.4568,232.85333,490.7954C233.91962,489.55505,236.54736,487.27844,237.2467,487.02844C237.69928,486.86182,238.10931,486.36572,238.23108,485.912C238.35272,485.4171,239.00928,484.75525,239.66711,484.42297C240.32507,484.0907,241.06366,483.34607,241.30878,482.80945C241.55365,482.2317,241.9226,481.7771,242.1698,481.77612C242.3758,481.77527,243.40234,480.90588,244.46912,479.78918C250.78833,473.37756,257.31543,467.4182,261.341,464.3943C262.08026,463.81458,263.4765,462.6554,264.4206,461.78625C265.36493,460.95837,266.30975,460.25427,266.47455,460.25366C266.63934,460.25293,267.37897,459.7555,268.11792,459.09326C270.49963,457.10608,274.48553,454.45313,275.06232,454.4508C275.3919,454.44946,275.80316,454.24194,275.92572,453.99426C276.08954,453.74622,276.95197,453.04248,277.85565,452.37952C278.73193,451.72842,279.2461,451.42932,279.857,451.42932C280.33444,451.42932,280.871,451.612,281.68567,451.95215C284.1166,452.9707,289.2594,454.38892,290.46536,454.38892L290.47662,454.38892C291.22498,454.38892,293.77576,455.0367,296.1629,455.8081C298.51453,456.58142,301.15436,457.3125,302.02008,457.43262C302.84454,457.55298,305.3192,458.20215,307.46436,458.85278C309.60944,459.5033,312.20825,460.27576,313.23926,460.5188C314.27045,460.8031,316.41534,461.41248,317.98315,461.94177C319.59192,462.4298,323.01413,463.03394,325.61075,463.27087C328.20743,463.5077,332.04105,463.98657,334.06125,464.3081C336.1227,464.67065,341.56424,465.39038,346.22208,465.90735C350.88004,466.46533,356.1568,467.18582,357.97095,467.5081C359.78528,467.8716,363.4131,468.39273,366.01007,468.71194C372.72913,469.50885,374.4195,469.7906,374.87402,470.11835C375.1219,470.28217,376.23566,470.60724,377.34906,470.8499C378.50366,471.09247,379.9474,471.49884,380.60736,471.7021L381.76282,472.1507L377.08466,476.82526C371.83215,482.12018,370.02728,484.10504,367.36346,487.65912C366.33893,489.0229,365.0675,490.47003,364.5747,490.8841C364.08197,491.29803,363.5492,492.00067,363.38635,492.49567C363.2647,492.99054,362.77313,493.69293,362.3625,494.02423C361.95197,494.3968,361.17413,495.6358,360.60193,496.7918C360.0296,497.90656,359.2107,499.18707,358.75916,499.6009C358.30762,500.0147,357.8167,500.88202,357.69556,501.50055C357.57446,502.11908,356.92065,503.48126,356.3067,504.4726C355.65155,505.5052,354.9975,506.7851,354.83484,507.32147C354.63098,507.85785,354.09982,508.9723,353.56754,509.79858C353.07645,510.6245,352.34024,511.98706,352.01413,512.85364C351.6467,513.6791,350.8281,515.0421,350.1722,515.8688C349.55765,516.7366,348.6157,518.1411,348.1249,519.04956C346.40726,522.2289,345.09756,524.41785,343.74557,526.3186C342.96707,527.39294,342.35318,528.4254,342.35403,528.6315C342.35483,528.8374,341.8229,529.7461,341.12613,530.6553C340.47043,531.5232,339.8972,532.4319,339.89804,532.63794C339.89883,532.8439,339.3257,533.7527,338.67032,534.7029C337.97372,535.6532,336.54062,537.8839,335.43552,539.7013C334.37155,541.51843,333.02005,543.5427,332.4047,544.20447C331.83035,544.8247,331.21616,545.7748,331.05313,546.22876C330.89035,546.72375,330.0718,548.0867,329.21127,549.2439C328.30942,550.4011,327.61398,551.64,327.61545,552.01074C327.6171,552.4227,327.45346,552.7118,327.20627,552.71277C327.00027,552.7136,326.3444,553.5403,325.77158,554.5315C325.19888,555.56384,323.92776,557.0934,322.9836,557.9624C322.03952,558.8314,320.60428,560.5265,319.82605,561.6831C319.04803,562.8811,318.18683,563.87354,317.89838,563.87463C317.1156,563.8778,316.1317,565.1178,316.13568,566.1067C316.13788,566.6422,315.4831,567.7572,314.7036,568.5845C313.92426,569.45276,313.26923,570.4855,313.27106,570.9387C313.2727,571.3507,313.1093,571.72217,312.94452,571.7228C312.73853,571.72363,312.08234,572.4679,311.38574,573.41833C310.7301,574.3274,309.78754,575.56726,309.2954,576.146C308.76215,576.725,308.35327,577.5094,308.3548,577.88025C308.35883,578.89136,303.6432,583.8494,302.76553,583.8494C302.7134,583.8494,302.6748,583.8319,302.65155,583.79504C302.35254,583.3102,301.13367,583.0059,300.02826,583.0059C299.44727,583.0059,298.89758,583.08997,298.5293,583.276C298.0772,583.56616,297.01227,585.1361,296.23615,586.78723C294.8474,589.80066,292.26813,593.8899,291.36487,594.6764C290.3792,595.46313,287.35614,601.9027,287.1159,603.63416C286.95605,604.87085,286.54755,605.7377,285.60358,606.64795C284.86456,607.3102,284.16852,608.3843,284.04742,609.0027C283.76312,610.0338,280.51868,612.6426,279.40625,612.6471C278.747,612.6498,277.60077,614.4673,277.60492,615.4972C277.61133,617.1041,279.18823,619.8994,281.0075,621.4989C284.3152,624.36975,285.22443,625.0665,286.2975,625.5155C286.87506,625.7191,287.90692,626.1682,288.64966,626.4536C289.3497,626.7796,290.13135,627.0233,290.42148,627.0233L290.42444,627.0233C290.67264,627.0233,291.4975,627.4728,292.2406,628.046C292.98416,628.61957,293.72723,629.0697,293.8514,629.0697L293.85202,629.0697C294.01816,629.0697,295.0904,629.5183,296.28656,630.08997C297.44238,630.62085,299.0515,631.19116,299.87604,631.3115C301.23663,631.5532,305.77515,633.14185,307.34412,633.9596C307.71564,634.12305,308.78802,634.4071,309.73627,634.568C310.68457,634.729,312.2522,635.2173,313.2016,635.6665C315.26346,636.6462,319.2182,638.02905,319.96585,638.02905L319.96912,638.02905C320.25967,638.02905,321.70248,638.5997,323.14557,639.2523C324.62976,639.94604,326.11325,640.4751,326.44534,640.4751L326.4476,640.4751C326.77914,640.4751,328.22232,641.1281,329.62488,641.9043C331.02887,642.6815,332.68,643.45776,333.2987,643.6201C333.87598,643.74146,334.90802,644.2317,335.52783,644.6824C336.1889,645.13293,337.55096,645.7455,338.58215,646.0298C339.61353,646.3552,341.3059,647.13135,342.37958,647.7449C343.4123,648.4,344.85693,649.05347,345.51678,649.2156C346.2179,649.37756,347.66223,649.9486,348.73578,650.5211C349.89172,651.09326,351.5829,651.58093,352.6543,651.6178C353.7257,651.65466,354.674,651.8157,354.83942,651.97986C355.37805,652.7193,359.7472,653.15497,368.31793,653.36774C370.51944,653.4129,372.26047,653.4378,373.60635,653.4378C376.36646,653.4378,377.46448,653.33307,377.4635,653.0838C377.46252,652.8366,378.2033,652.6275,379.35693,652.62286C383.5182,652.60614,390.80115,650.1872,392.19464,648.36884C392.48157,647.9969,392.9325,647.4183,393.21973,647.1286C394.90216,645.4327,395.18665,644.4427,394.92694,641.3536C394.62698,638.4309,393.7514,635.6751,393.0923,635.6751L393.09094,635.6751C392.92596,635.6751,392.55386,635.2649,392.26343,634.7309C391.43314,633.16846,389.1633,632.23,384.38052,631.3839C382.68994,631.06116,379.7213,630.5375,377.78357,630.2156C375.84564,629.85266,373.66046,629.4906,372.9596,629.36975C371.9701,629.209,371.59814,628.9221,371.5959,628.3452C371.59406,627.8921,371.0973,627.31714,370.47815,627.03125C369.85895,626.74536,369.27966,626.12964,369.19543,625.67676C368.94287,624.3594,368.36426,623.90857,366.50903,623.62756C365.56085,623.46655,363.78668,622.8556,362.58954,622.28357C360.81445,621.42554,360.23547,620.8922,359.5705,619.4529C359.11374,618.4667,358.4932,617.6869,358.1634,617.6869L358.1601,617.6869C357.83145,617.6869,357.54352,617.4414,357.54236,617.1537C357.54102,616.8241,356.79614,616.00305,355.88672,615.265C354.97748,614.56836,353.94278,613.4187,353.61057,612.76086C353.2371,612.10315,352.49265,611.40564,351.95657,611.2842C351.29666,611.1221,350.9244,610.7528,350.9224,610.2583C350.92056,609.8052,350.63034,609.35315,350.3002,609.2307C349.96994,609.06726,349.68008,608.69775,349.67874,608.36816C349.67746,608.03845,348.7664,606.88855,347.60825,605.78076C345.41617,603.68823,344.99936,602.4951,346.35898,602.4896C346.77103,602.48804,347.34634,602.11487,347.59152,601.6195C348.12302,600.67035,347.82773,598.7782,347.16953,598.7782L347.16754,598.7782C346.92065,598.7782,346.75363,598.16125,346.75052,597.37915C346.74753,596.63745,346.37222,595.5265,345.91672,594.95154C344.96445,593.80176,345.08176,592.2356,346.26566,589.5116C348.02158,585.59033,348.3477,584.72375,348.34555,584.1881C348.3442,583.8585,348.63126,583.52783,348.96017,583.3617C349.33054,583.2366,349.5753,582.61755,349.57242,581.91724C349.5698,581.25793,349.6909,580.6395,349.89658,580.5563C350.59586,580.265,352.43808,577.3323,352.43497,576.54944C352.43295,576.05505,352.63748,575.6835,352.84354,575.6826C353.09073,575.68164,353.2537,575.2278,353.25156,574.69214C353.24954,574.19775,353.69894,573.2483,354.2733,572.6279C354.80658,572.049,356.40527,570.02374,357.79852,568.12286C359.1919,566.26324,360.87268,564.1551,361.48804,563.49347C363.90833,560.84686,365.54822,558.8215,365.54688,558.49176C365.58728,558.2856,366.16187,557.7476,366.90167,557.29144C367.64154,556.83527,368.38013,556.09064,368.5841,555.5954C368.78833,555.1414,369.4859,554.4382,370.14368,554.06476C370.76013,553.69147,371.29364,553.15375,371.29248,552.8653C371.33252,552.5767,372.0711,551.8321,372.9339,551.2105C373.83783,550.58905,374.5761,549.7619,374.57477,549.4323C374.57343,549.1027,374.81946,548.8133,375.1079,548.8122C375.4375,548.81085,376.34113,548.1069,377.16162,547.23834C377.94116,546.4112,379.46008,545.04535,380.5282,544.25836C381.55505,543.4714,383.03333,542.2293,383.73096,541.52606C384.46976,540.8227,386.60422,538.8365,388.5341,537.1806C394.65146,531.79987,415.66068,510.41425,419.92465,505.20575C422.7946,501.69208,423.98398,500.3277,425.1743,499.2105C429.93588,494.78265,441.8738,481.92096,441.87082,481.17938C441.86905,480.72614,445.0638,476.01642,446.33524,474.56927C448.0991,472.62567,450.7986,467.71194,451.24374,465.6912C451.4868,464.6602,451.67984,461.4457,451.6683,458.56168C451.64908,453.78238,451.564,453.12357,450.60928,451.35562C450.06937,450.28653,449.15762,448.9717,448.53745,448.43875C447.95853,447.90543,447.50302,447.33047,447.50217,447.12442C447.50137,446.91837,447.08835,446.67276,446.55222,446.55142C446.01596,446.3887,444.90024,445.56912,444.0314,444.66617C443.03854,443.68143,440.68417,442.20755,437.83572,440.81815C435.31747,439.59232,432.9642,438.4069,432.63382,438.20218C432.3033,437.9976,430.36313,437.05777,428.3403,436.07693C426.27628,435.09647,423.5095,433.54184,422.105,432.64108C420.70053,431.74033,418.8005,430.55307,417.85062,429.98007C416.90067,429.40707,414.8768,428.17917,413.34842,427.19638C411.82022,426.25497,410.20975,425.35507,409.8384,425.23288C409.42593,425.11093,409.09518,424.82382,409.09433,424.6179C409.09354,424.41245,408.88803,424.24887,408.6418,424.24887L408.63882,424.24887C408.39072,424.24887,407.60696,423.79916,406.86386,423.22592C406.1207,422.6528,405.337,422.2031,405.08884,422.2031L405.08734,422.2031C404.8808,422.2031,404.34457,421.8347,403.9725,421.42465C403.5587,420.97324,402.64993,420.4,401.9484,420.11447C401.2056,419.82895,399.80142,419.0106,398.76846,418.27316C397.73557,417.57687,396.4554,416.8403,395.87796,416.67783C395.30045,416.51535,394.47446,416.02426,394.01956,415.6141C393.56473,415.20395,392.3674,414.5908,391.3771,414.22385C390.4282,413.89804,389.1069,413.20297,388.4456,412.67C387.8254,412.13693,386.66916,411.4824,385.92636,411.19687C385.14236,410.9116,384.23434,410.50327,383.9039,410.29868C383.57364,410.1351,382.624,409.6445,381.83975,409.27682C381.0554,408.90915,378.6201,407.8065,376.47348,406.78513C374.32693,405.76364,372.01523,404.6605,371.31345,404.3337C370.6528,403.96567,369.16653,403.22995,368.0106,402.6578C366.8961,402.12668,365.45035,401.22604,364.83005,400.6517C364.2097,400.07736,363.3417,399.38046,362.92868,399.13498C362.47452,398.8895,361.23514,398.0704,360.16098,397.33322C359.1292,396.6377,358.01566,396.02463,357.6847,396.02463L357.6796,396.02463C357.35135,396.02463,357.02325,395.86185,356.89944,395.6982C356.775,395.49277,355.33035,394.8392,353.67978,394.22784C352.02933,393.61652,350.37857,392.9638,350.0482,392.75922C348.2308,391.6541,345.79648,390.79865,343.44644,390.39606C342.0032,390.11346,340.64212,389.7481,340.39395,389.5019C340.1885,389.2981,339.41412,389.0966,338.71744,389.0966C338.71262,389.0966,338.70782,389.0966,338.70303,389.09662C338.69925,389.09665,338.6955,389.09665,338.6917,389.09665C337.91223,389.09665,337.09268,388.77112,336.63968,388.28094C336.1869,387.79095,335.3677,387.46548,334.5074,387.46548C334.5029,387.46548,334.4984,387.46548,334.49393,387.4655C334.48843,387.46555,334.48294,387.46555,334.47748,387.46555C333.74323,387.46555,333.13345,387.26312,333.13248,387.01776C333.13016,386.44098,335.30655,384.61932,337.6495,383.25027C338.67722,382.66934,339.99167,381.6752,340.56613,381.0961C341.09946,380.51712,341.75668,380.02005,342.00388,380.01907C342.20993,380.01822,342.9492,379.4384,343.60574,378.77652C344.2623,378.11478,345.00162,377.53494,345.2488,377.53397C345.496,377.533,346.56442,376.82828,347.63217,375.95865C350.7535,373.47403,353.2596,371.6924,354.45255,371.19308C355.02817,370.90244,355.89108,370.32224,356.34244,369.86716C356.7938,369.41208,357.90323,368.666,358.80783,368.20908C359.6713,367.75253,360.90414,366.9647,361.4791,366.50912C362.054,366.01242,362.95816,365.4731,363.53433,365.306C364.0693,365.13913,364.76822,364.76547,365.05545,364.47592C365.34268,364.18637,366.4528,363.60507,367.52237,363.1888C368.63315,362.7722,370.44235,361.8585,371.5519,361.15366C372.7029,360.48984,374.10025,359.619,374.67575,359.28708C376.89548,358.00082,379.4825,355.848,380.01425,354.89816C380.30057,354.36154,380.75192,353.90646,380.9991,353.9055C381.2463,353.9045,382.1498,353.15927,382.97018,352.24948C383.7493,351.33994,384.57034,350.59494,384.69394,350.59445C384.85873,350.59372,385.68063,350.0549,386.50204,349.3923C387.3644,348.68857,388.55624,347.942,389.25534,347.6096C389.91336,347.31857,391.0233,346.69614,391.68057,346.19907C392.37894,345.70175,393.90012,344.87167,395.09293,344.37253C396.24454,343.8735,397.23105,343.29257,397.23038,343.12778C397.2297,342.96298,397.723,342.6727,398.3403,342.50534C398.95786,342.37924,400.84995,341.58884,402.53586,340.75803C404.26315,339.96823,406.85464,338.92783,408.29483,338.46872C409.7762,338.0096,411.33945,337.38535,411.79147,337.09506C412.2847,336.80466,413.3953,336.34702,414.30057,336.05502C415.20584,335.7629,416.52194,335.18088,417.17947,334.76608C417.8782,334.3513,419.4814,333.43845,420.75565,332.69174C422.03006,331.98618,423.1804,331.15744,423.30264,330.82736C423.42496,330.49728,423.79477,330.24863,424.12436,330.24728C424.45395,330.24594,425.5222,329.5001,426.46616,328.5897C427.4514,327.6794,428.39603,326.93405,428.56082,326.93332C428.8904,326.93198,436.24118,320.88705,436.69168,320.22604C436.8762,319.98123,437.3458,319.87173,437.98856,319.87173C440.05838,319.87173,443.92386,321.00708,445.84726,322.41415C447.5002,323.6434,451.59515,327.62363,452.3828,328.81528C452.9733,329.70862,454.6281,330.41238,455.74823,330.41238C456.12228,330.41238,456.4367,330.33392,456.63196,330.1578C456.8783,329.95908,457.24368,329.86737,457.66354,329.86737C458.6436,329.86737,459.92056,330.36703,460.67377,331.17172C461.16974,331.70453,461.8709,332.1545,462.15988,332.1545L462.16168,332.1545C462.45187,332.1545,463.93683,332.88962,465.42242,333.78952C466.90924,334.68985,468.2305,335.426,468.27197,335.426L468.27203,335.426C468.3552,335.426,470.00586,336.16095,471.94543,337.0593C473.88437,337.95734,475.57568,338.692,475.78333,338.692L475.78403,338.692C475.9499,338.692,476.98108,339.14075,478.05383,339.71286C480.28363,340.8988,488.4947,343.8734,490.9688,344.39917C492.6595,344.76318,495.71246,345.73975,497.1573,346.43433C497.61127,346.63855,499.38495,347.167,501.0761,347.6134C504.1281,348.38403,508.33612,349.7268,510.77106,350.74707C513.24725,351.7671,515.3514,352.50024,516.7537,352.86548C517.53766,353.1095,520.05365,353.7998,522.3226,354.4911C527.3001,355.94122,529.96796,356.56827,531.9245,356.56827C532.98376,356.56827,533.83453,356.38446,534.7304,356.04797C536.0878,355.50708,539.4146,352.89795,539.4123,352.32117C539.41034,351.82678,545.0656,344.22302,546.8708,342.32043C547.73236,341.4104,548.4289,340.41882,548.42755,340.08923C548.4262,339.75964,548.95844,338.89233,549.57355,338.18933C550.9273,336.74194,554.16205,331.70227,554.1595,331.08423C554.1586,330.8783,554.5274,330.3412,555.01996,329.886C555.51263,329.47205,556.25006,328.39783,556.6995,327.4895C557.14935,326.62244,558.04974,325.13574,558.7054,324.22656C559.3609,323.3175,559.89276,322.3678,559.8919,322.16187C559.8909,321.91455,560.2182,321.33643,560.6695,320.88135C561.07965,320.38525,562.0621,318.8158,562.8389,317.32935C563.6159,315.8429,564.5562,314.0675,564.9245,313.40686C565.29254,312.70483,565.86444,311.5077,566.2321,310.7234C566.5998,309.9391,567.3355,308.453,567.90814,307.42065C568.43964,306.38843,568.8881,305.23303,568.8863,304.7798C568.8847,304.3678,569.61896,302.552,570.5181,300.73547C571.4172,298.91895,572.1514,297.06198,572.14984,296.65C572.148,296.19675,572.596,294.9177,573.168,293.72055C573.7403,292.56467,574.18854,291.368,574.1872,291.03842C574.1844,290.33798,575.3239,286.79,575.9781,285.55136C576.5096,284.51913,576.95636,282.95163,578.66095,276.4763C579.1888,274.5377,579.7586,272.8049,579.9224,272.55698C580.1276,272.3502,580.28973,271.69028,580.2873,271.07224C580.2847,270.4543,580.97894,268.88583,581.8387,267.56393C583.3129,265.29196,585.196,262.23544,586.30023,260.21213C586.58673,259.75778,587.20184,259.01364,587.6945,258.5997C588.88556,257.6472,592.1628,252.9371,592.16,252.23679C592.1586,251.90707,592.8936,250.25607,593.79315,248.56332C594.6928,246.8292,595.42706,245.01328,595.42487,244.47763C595.4229,243.98325,595.8702,242.49826,596.4417,241.17746C597.54443,238.74228,598.4697,233.21747,598.0929,231.73578C597.96704,231.15936,598.4553,229.633,599.4772,227.61005C600.37634,225.79352,601.1106,223.97758,601.1089,223.5656C601.10706,223.11247,601.55505,221.79216,602.08606,220.63652C603.801,216.79778,604.5228,211.85063,603.52686,210.08305C603.17126,209.40808,601.8721,208.96785,600.6639,208.96785C600.1793,208.96785,599.70935,209.03867,599.3208,209.19353C598.2101,209.61003,597.3519,211.38506,596.3385,215.50932C595.97375,217.03532,595.4027,218.47966,595.07434,218.76933C594.7457,219.01787,594.5001,219.43083,594.501,219.63689C594.50183,219.84282,594.2152,220.29729,593.88696,220.62822C593.55884,221.00041,593.2731,221.66069,593.275,222.15508C593.23584,222.6497,592.9922,223.51591,592.7058,224.05267L592.1742,225.04364L591.6349,224.09808C591.0952,223.1115,591.21643,222.53423,592.7217,217.74883C593.0879,216.59367,593.4083,214.32634,593.48425,212.71916C593.5189,211.07097,593.67737,209.50456,593.8412,209.25676C594.25037,208.55473,594.8805,201.30083,594.58716,200.06584C594.3357,198.83452,592.61035,197.73195,590.9667,197.73195C590.9618,197.73195,590.9569,197.73196,590.952,197.73198C590.9199,197.73212,590.8888,197.7322,590.85876,197.7322C589.96387,197.7322,589.9816,197.65852,590.5354,196.58C591.3529,194.9699,591.22424,193.69316,590.06604,192.58537C589.4058,191.90523,588.1726,191.53783,586.9763,191.53783C586.22345,191.53783,585.4852,191.68333,584.9136,191.98796C583.8856,192.52776,582.08887,196.53154,581.4016,199.83037C581.11926,201.31487,580.3861,203.41899,579.8136,204.4926C579.2412,205.60735,578.7523,206.96892,578.75476,207.58696C578.71497,208.13358,578.6955,208.40135,578.6635,208.40135C578.6328,208.40135,578.59064,208.1544,578.50793,207.67033C578.3821,207.1353,578.5823,205.65117,578.90674,204.3726C581.2134,195.90363,580.84375,193.66708,577.2102,193.66708C577.1983,193.66708,577.1864,193.66711,577.17444,193.66716C573.7959,193.68083,573.058,194.59013,571.76245,200.2813C571.479,201.51836,570.91064,203.62187,570.50415,204.98332C570.05615,206.30351,569.73584,208.61198,569.74194,210.1364C569.7075,211.82585,569.42664,213.68108,568.8967,215.12529C568.40735,216.3632,567.6333,218.5501,567.14453,219.9528C566.6145,221.35588,565.67395,223.13127,565.01794,223.9168C564.3618,224.70221,563.66516,225.61151,563.41956,226.02448C563.24066,226.32545,563.11945,226.48032,562.8859,226.48032C562.63873,226.48032,562.2657,226.30685,561.5652,225.94952C559.70703,224.92694,557.01953,222.58928,557.01697,221.9301C557.0139,221.1884,554.49365,219.46806,552.34827,218.73503C551.0645,218.29953,549.08044,218.10051,546.32025,218.10051C546.2418,218.10051,546.1628,218.10068,546.0831,218.101C541.13904,218.1209,540.3988,218.4948,540.6146,220.92473C540.7439,222.32512,540.86804,222.44817,542.8069,223.0584C545.19934,223.74919,546.68677,224.77325,549.74805,227.85101C553.3469,231.42108,554.00977,232.32489,554.8026,234.83502C555.22003,236.15182,556.0098,237.87912,556.5485,238.65976C557.0461,239.44052,557.5035,240.46872,557.5053,240.92197C557.51227,242.65244,559.1401,247.87839,560.05145,249.11093C560.83844,250.13779,560.9649,250.83762,560.9333,253.22739C560.9395,254.79306,560.6983,256.2773,560.4521,256.52548C560.2469,256.73227,560.0428,257.18637,560.0441,257.51596C560.0455,257.84555,559.8016,258.67062,559.4747,259.3724C558.4544,261.7662,557.59894,264.2004,557.6014,264.81845C557.60284,265.18918,557.1534,266.13864,556.66254,267.00595C556.1302,267.83212,555.5584,269.0704,555.3964,269.77158C555.2342,270.43137,554.82574,271.2983,554.53864,271.629C553.9234,272.33188,551.55133,276.70883,549.71246,280.50668C549.05865,281.82785,548.11774,283.52084,547.5849,284.22348C547.0932,284.8846,546.3566,286.12363,545.98895,286.90793C545.62115,287.69223,544.92535,288.80746,544.392,289.38644C543.89996,289.9653,543.2856,290.8741,543.0407,291.45187C542.79584,292.02975,539.39154,295.8752,535.5352,300.01086C531.6789,304.14648,528.5207,307.7025,528.5213,307.86743C528.52203,308.03223,527.8249,308.859,527.0042,309.68628C526.1423,310.5138,525.2807,311.4237,525.0345,311.67188C522.6147,314.44214,520.1071,315.85303,517.5527,315.86328C517.52374,315.8634,517.4952,315.86346,517.46686,315.86346C515.7593,315.86346,515.0953,315.64706,513.5505,314.43726C512.5173,313.65857,510.98883,312.6759,510.0805,312.22632C509.21368,311.77673,507.84955,310.71094,507.06342,309.84875C505.0771,307.71423,502.76276,305.9519,500.0788,304.52075C498.84027,303.86646,497.43634,303.1305,496.98224,302.885C494.29816,301.4126,490.21173,299.5338,489.0572,299.3324C488.14996,299.13013,487.69525,298.7611,487.61053,298.18454C487.52618,297.69052,487.19464,297.19748,486.86432,297.0339C486.53412,296.87045,485.66705,296.42075,484.924,296.05283C484.22424,295.68597,483.3203,295.40195,482.86563,295.40195L482.8548,295.40195C482.44327,295.40195,481.87006,295.2401,481.54132,295.03647C480.63263,294.46335,482.4771,292.10727,483.83673,292.1019C486.14398,292.09262,488.15912,291.13693,488.81268,289.7335C489.18024,288.94907,489.75482,288.36996,490.1668,288.36838C490.5788,288.36667,491.1546,288.11716,491.44196,287.8276C491.72906,287.53806,492.3045,287.1649,492.67462,286.99863C493.04498,286.8735,493.78217,285.7993,494.31317,284.64352C495.00812,283.11102,495.23923,282.68967,495.8426,282.68967C496.01926,282.68967,496.22784,282.7258,496.48932,282.78073C498.38342,283.12463,499.83325,283.3106,500.94064,283.3106C503.20816,283.3106,504.03986,282.53085,504.3095,280.73044C504.47064,279.82333,505.03632,277.06064,505.5622,274.62753C506.16913,271.90585,506.5279,268.8967,506.51935,266.75424C506.50397,262.92258,506.46283,262.96396,509.91962,261.92C511.60675,261.37753,512.2618,260.34494,512.2526,258.07895C512.29095,257.33713,512.534,256.30612,512.86127,255.72787C513.18854,255.14975,513.4322,254.28354,513.4714,253.7479C513.4693,253.25339,513.67365,252.84055,513.8797,252.83969C514.1269,252.83871,514.2907,252.59091,514.2895,252.30258C514.2853,251.2716,515.0548,248.99878,515.36566,248.99878C515.3902,248.99878,515.41187,249.01295,515.4301,249.04306C515.5959,249.28952,517.61566,249.52866,519.96454,249.64279C522.3134,249.71567,524.4572,250.03683,524.7054,250.28305C524.98114,250.55658,525.57104,250.6731,526.2791,250.6731C528.1202,250.6731,530.76044,249.88548,530.7569,249.02255C530.7553,248.61057,530.95966,248.23886,531.1657,248.23813C531.4129,248.23703,531.5761,247.82443,531.57416,247.33005C531.5721,246.83566,531.89874,246.09262,532.2679,245.67917C533.0883,244.7695,533.52325,240.23557,532.861,239.45541C532.5712,239.12692,532.52704,238.38547,532.76996,237.3132C532.9722,236.4061,533.1726,235.00433,533.16943,234.22162C533.1638,232.82074,531.32336,225.94745,530.61804,224.75543C530.4519,224.42657,529.954,223.52202,529.5801,222.7819C529.20685,222.08368,528.62836,221.46843,528.33966,221.46843L528.3378,221.46843C528.0081,221.46843,527.42944,220.81212,527.0558,220.03154C526.391,218.63347,522.63086,215.92912,519.37,214.45903C518.5857,214.09135,518.08875,213.47539,517.7544,212.28178C517.5034,211.33537,516.88,210.01933,516.38306,209.3621C515.8856,208.66362,515.3878,207.80046,515.2213,207.38908C515.0561,206.94002,514.5262,206.69519,513.592,206.69519C513.58484,206.69519,513.57764,206.6952,513.57043,206.69524C513.5589,206.69528,513.54736,206.69531,513.5359,206.69531C511.49066,206.69531,509.73306,205.96318,509.23718,204.89983C508.78568,203.8846,507.33212,203.43587,504.5193,203.43587C504.48334,203.43587,504.44714,203.43593,504.41077,203.43608C504.40002,203.43613,504.3893,203.43614,504.37863,203.43614C503.2425,203.43614,502.46863,203.1916,501.97668,202.66301C501.60437,202.25249,500.57166,201.59746,499.66345,201.18901C498.6316,200.73991,498.01135,200.16557,498.00952,199.71245C498.00415,198.35283,496.30994,197.16472,491.688,195.28801C491.07507,195.04579,489.7353,194.84666,488.74902,194.84666C488.73917,194.84666,488.72937,194.84668,488.7196,194.84673C488.71252,194.84676,488.70532,194.84677,488.69806,194.84677C487.69183,194.84677,484.9941,194.5707,482.7428,194.2116C480.77347,193.9011,478.90643,193.75285,477.08456,193.75285C476.3129,193.75285,475.54932,193.77945,474.7895,193.83157C463.7917,194.5762,463.37982,194.61893,463.38202,195.15457C463.38348,195.5253,462.56055,195.81705,461.0368,195.98807C459.71887,196.11697,457.98993,196.49466,457.20844,196.82742C456.427,197.16031,455.028,197.61905,454.12274,197.91116C451.5714,198.70425,449.10468,200.0325,447.50378,201.52225C446.72394,202.267,445.32697,203.22025,444.42236,203.67715C443.55896,204.1337,442.57373,205.04422,442.24664,205.6636C441.46985,207.14981,439.3368,209.50699,438.1855,210.08841C437.73315,210.2963,437.03552,210.99942,436.70825,211.57767C436.33972,212.15591,435.52106,213.47757,434.8246,214.46927C433.84174,215.95645,433.59796,216.82266,433.4842,219.25406L433.3313,222.2211L431.6454,223.05191C430.8188,223.4694,430.36392,223.66695,430.07275,223.66695C429.8425,223.66695,429.71463,223.54341,429.5863,223.3074C429.42023,222.97842,428.71747,222.40445,428.05695,222.07755C427.35504,221.7095,426.56873,220.84744,426.23615,220.10721C425.4878,218.42093,420.3988,213.16763,418.6648,212.2681C417.92163,211.9003,417.30182,211.44962,417.30103,211.24356C417.30017,211.03763,416.59778,210.54605,415.77228,210.1785C414.9054,209.76993,414.12073,209.31985,413.99646,209.15555C413.58246,208.53987,409.4633,206.7056,408.50992,206.7056L408.50348,206.7056C407.9662,206.7056,406.77258,206.21678,405.90662,205.56229C403.6756,204.04678,402.52002,203.55704,400.41742,203.236C399.2633,203.11697,398.19012,202.62686,397.56964,202.01138C396.95126,201.39789,396.0882,200.99013,395.389,200.99013C395.38663,200.99013,395.38422,200.99013,395.38184,200.99014C395.37808,200.99016,395.37433,200.99016,395.37057,200.99016C394.6344,200.99016,394.0608,200.70422,393.77173,200.17252C393.5227,199.72037,392.3656,198.85977,391.16846,198.28763C389.97113,197.67459,388.48425,196.77408,387.78186,196.2825C387.12067,195.79068,385.71716,195.13712,384.68585,194.81168C383.65463,194.52737,381.9205,193.62796,380.76395,192.8909C378.24374,191.17055,376.9645,190.68129,371.6854,189.34291C369.41684,188.7339,367.27164,188.04225,366.94083,187.75514C366.61008,187.46803,365.20627,186.73207,363.84402,186.07826C362.4819,185.46571,361.0781,184.72975,360.74728,184.44264C360.41672,184.1968,359.30197,183.62453,358.3116,183.25758C357.27994,182.84975,355.9589,182.19594,355.33908,181.74513C354.72043,181.33626,353.93768,180.96913,353.64813,180.96913L353.6455,180.96913C353.06473,180.96913,349.35312,179.29614,346.62994,177.86597C346.05334,177.5396,345.2723,177.29602,344.94107,177.29602L344.93744,177.29602C344.6059,177.29602,343.03876,176.56107,341.51215,175.66162C339.94464,174.76263,338.37784,174.02783,337.96365,174.02783L337.9589,174.02783C337.5885,174.02783,337.09552,173.78333,336.93005,173.49646C336.76392,173.16736,335.5655,172.26587,334.3261,171.44678C333.0868,170.62769,331.59943,169.60364,331.06232,169.2351C330.27722,168.66138,328.87555,168.46094,325.08423,168.27014C322.32312,168.11646,318.6961,167.80151,317.00592,167.56104C311.56302,166.80585,298.0433,166.32738,287.39343,166.32738C281.10425,166.32738,275.8159,166.49423,273.78284,166.8695C270.48907,167.4596,265.50623,168.09766,260.76996,168.56995C258.50482,168.78503,256.1166,169.16539,255.4584,169.41527C254.80002,169.62401,252.86441,169.83763,251.13412,169.88585C249.40366,169.8928,247.09726,170.10814,245.94449,170.31871C244.83286,170.52928,242.486,170.90941,240.79752,171.1223C239.10916,171.33507,236.59738,171.71593,235.23874,171.96861C234.2103,172.19115,232.47305,172.32196,230.90285,172.32196C230.39897,172.32196,229.91231,172.30849,229.47177,172.28026C226.0925,172.08775,224.0712,171.47801,222.25272,170.08434C220.6409,168.85472,214.61765,166.90135,210.08224,166.09544C207.81454,165.69261,205.50522,165.16624,204.92752,164.96263C203.36159,164.39293,197.80623,163.05833,196.93019,163.05833L196.92354,163.05833C196.09828,163.05833,194.40428,161.82838,191.18285,158.83763C189.98357,157.72997,188.32957,156.2534,187.46153,155.5565C186.5933,154.81834,184.40178,152.84947,182.58195,151.12633C180.47258,149.11595,178.81963,147.88646,178.03612,147.72484C177.28429,147.5834,176.67963,147.50725,176.16179,147.50725 Z"/> </g> </g> </svg>