<?xml version="1.0" encoding="UTF-8"?>
<svg version="1.1" viewBox="0 0 1032.1 1019.8" xmlns="http://www.w3.org/2000/svg">
 <g transform="translate(168.2 137.62)">
  <g transform="matrix(1.2934 0 0 1.2934 -253.6 -258.83)">
   <path d="m637.28 772.78s40.814-5.5492 68.056-46.14c24.753-36.882 1.9896-68.612 11.901-107.73 13.53-53.393 101.87 10.326 101.87 10.326s-21.662-38.773-57.053-61.81c-16.397-10.673-47.215-10.358-61.613 6.6742-20.02 23.682-20.765 54.792-16.597 84.265 3.5492 25.094-13.625 52.301-21.387 61.691-33.512 40.537-43.214 19.216-43.214 19.216z" fill="#a05a2c" stroke="#000" stroke-width="1.25"/>
   <g transform="matrix(0 1 -1 0 1433.8 -194.28)" stroke="#000">
    <path d="m856.88 573.65c-3.6833 14.787-20.883 16.63-30.061 18.919 1.7887-3.5794 8.2971-11.327 6.3477-22.672-5.6814 16.453-17.68 20.443-42.032 32.643-23.639 11.842-26.82 42.852-19.089 62.181 0 0 14.275 23.959 49.346 6.4672 25.424-12.68 13.477-32.658 36.526-40.187-5.3445-2.7968-6.4525-2.0172-10.813-0.98353 7.5457-22.918 17.68-38.787 9.7754-56.367z" fill="#28170b"/>
    <path d="m850.74 598.26s-18.909 0.60371-29.534 23.64c-10.703 23.204-38.186 34.744-38.186 34.744s25.176-0.72677 35.859-20.866c12.505-23.575 31.86-37.518 31.86-37.518zm-4.4535 35.389s-15.304-4.7908-25.338 18.837c-9.9882 23.52-35.047 17.759-35.047 17.759s33.032 8.0961 39.035-13.897c5.5127-20.195 21.35-22.699 21.35-22.699zm-29.37-37.5s-3.1569 17.532-25.593 18.383c-18.632 0.70719-15.199 42.014-15.199 42.014s0.42874-31.549 25.364-37.136c20.124-4.5091 15.428-23.261 15.428-23.261z" fill="#502d16"/>
   </g>
   <path d="m230.81 692.94c11.148 18.208 10.815-35.492 9.116-11.286-0.56455 8.0421-26.545 41.342-28.438 78.178 14.704 9.5298 24.191 22.584 25.188 37.219 0.108 1.5865 0.12925 3.1636 0.0312 4.75 0.132 1.1577 0.1875 2.3382 0.1875 3.5312 0 17.014-13.798 30.812-30.812 30.812-11.452 0-21.44-6.2579-26.75-15.531-4.4786 11.481-15.621 19.625-28.688 19.625-12.726 0-23.677-7.7094-28.375-18.719-5.609 7.6137-14.63 12.562-24.812 12.562-17.014 0-30.812-13.798-30.812-30.812 0-2.2284 0.23808-4.4059 0.6875-6.5-2.2736-26.725 31.134-52.716 70.179-45.83-24.143-15.243-50.003-52.332-48.081-100.1 2.0316-50.49 86.145-58.962 117.75-45.147s12.482 69.038 23.629 87.246z" fill="#a05a2c" stroke="#000" stroke-width="1.25"/>
   <path d="m536.65 692.94c-11.148 18.208-10.815-35.492-9.116-11.286 0.56455 8.0421 26.545 41.342 28.438 78.178-14.704 9.5298-24.191 22.584-25.188 37.219-0.108 1.5865-0.12925 3.1636-0.0312 4.75-0.132 1.1577-0.1875 2.3382-0.1875 3.5312 0 17.014 13.798 30.812 30.812 30.812 11.452 0 21.44-6.2579 26.75-15.531 4.4786 11.481 15.621 19.625 28.688 19.625 12.726 0 23.677-7.7094 28.375-18.719 5.609 7.6137 14.63 12.562 24.812 12.562 17.014 0 30.812-13.798 30.812-30.812 0-2.2284-0.23808-4.4059-0.6875-6.5 2.2736-26.725-31.134-52.716-70.179-45.83 24.143-15.243 50.003-52.332 48.081-100.1-2.0316-50.49-86.145-58.962-117.75-45.147s-12.482 69.038-23.629 87.246z" fill="#a05a2c" stroke="#000" stroke-width="1.25"/>
   <path d="m371.94 400.22c-110.35 0.97659-210.68 252.47-207.59 316.84 3.0906 64.373 45.802 85.624 68.844 98.125s254.33 9.964 280.12-0.28125c25.796-10.245 69.835-29.153 71.375-103.34 1.5401-74.19-102.93-312.32-212.75-311.34z" fill="#a05a2c" stroke="#000" stroke-width="1.25"/>
   <path d="m280.44 602.06c-9.4012 15.053-18.709 36.063-26.656 59.344-15.443 45.242-25.75 99.052-21.719 134.41-19.754 12.684-35.291 28.078-35.375 48.781 0 17.014 13.798 30.812 30.812 30.812 10.182 0 19.203-4.9488 24.812-12.562 4.698 11.009 15.649 18.719 28.375 18.719 13.066 0 24.209-8.1438 28.688-19.625 5.3097 9.2734 15.298 15.531 26.75 15.531 17.014 0 30.812-13.798 30.812-30.812-0.22124-20.091-11.797-36.432-25.406-45.5 10.174-34.47 10.127-87.882 3.5938-133.78-3.4197-24.024-8.6102-45.976-15.031-62.062" fill="#a05a2c" stroke="#000" stroke-width="1.25"/>
   <path d="m432.91 603.03c-6.4211 16.087-11.612 38.039-15.031 62.062-6.5337 45.899-6.5799 99.311 3.5938 133.78-14.704 9.5298-24.191 22.584-25.188 37.219-0.108 1.5865-0.12925 3.1636-0.0312 4.75-0.132 1.1577-0.1875 2.3382-0.1875 3.5312 0 17.014 13.798 30.812 30.812 30.812 11.452 0 21.44-6.2579 26.75-15.531 4.4786 11.481 15.621 19.625 28.688 19.625 12.726 0 23.677-7.7094 28.375-18.719 5.609 7.6137 14.63 12.562 24.812 12.562 17.014 0 30.812-13.798 30.812-30.812 0-2.2284-0.23808-4.4059-0.6875-6.5-1.2756-17.261-14.571-32.604-34.688-42.281 4.031-35.354-6.2756-89.165-21.719-134.41-7.9468-23.281-17.255-44.291-26.656-59.344" fill="#a05a2c" stroke="#000" stroke-width="1.25"/>
   <path d="m533.09 533.75s4.764 33.685-6.7806 41.816c-11.545 8.1314-41.657-7.6995-41.657-7.6995s2.047 31.609-16.967 38.816-38.433-17.817-38.433-17.817-5.8782 31.125-26.087 33.377c-20.209 2.2521-32.795-26.815-32.795-26.815s-13.434 28.685-33.568 25.841c-20.134-2.8444-25.096-34.129-25.096-34.129s-25.888 22.072-38.94 16.681c-13.051-5.3904-15.82-39.298-15.82-39.298s-25.592 18.665-41.865 6.4731-5.55-41.997-5.55-41.997-33.319 6.8696-42.159-4.1416c-8.8402-11.011 5.0687-42.058 5.0687-42.058s-31.418 4.0277-39.805-14.496c-8.3867-18.524 15.369-39.476 15.369-39.476s-31.433-3.9122-34.949-23.94c-3.5165-20.028 24.703-34.414 24.703-34.414s-29.472-11.606-27.898-31.879c1.5746-20.273 32.486-27.189 32.486-27.189s-25.66-18.571-19.093-37.816c6.5668-19.244 38.227-18.256 38.227-18.256s-20.235-24.369-9.0891-41.376 41.566-8.176 41.566-8.176-13.539-28.636 1.4862-42.336c15.026-13.7 42.293 2.4178 42.293 2.4178s-5.9925-31.103 11.968-40.637c17.961-9.5333 40.363 12.86 40.363 12.86s1.9308-31.616 21.698-36.384c19.767-4.7671 35.897 22.494 35.897 22.494s9.7328-30.143 30.065-29.844c20.332 0.29854 29.175 30.714 29.175 30.714s16.923-26.776 36.542-21.43c19.619 5.3454 20.62 37.005 20.62 37.005s23.05-21.726 40.723-11.669c17.673 10.056 10.77 40.97 10.77 40.97s32.195-10.991 42.346-1.175c10.151 9.8164 0.24256 42.362 0.24256 42.362s30.666-7.9337 41.308 9.3929-10.3 41.091-10.3 41.091 31.675-0.0582 37.674 19.371c5.9989 19.429-20.195 37.239-20.195 37.239s30.695 7.8209 31.673 28.131c0.97869 20.31-28.822 31.046-28.822 31.046s27.785 15.209 23.682 35.124c-4.103 19.916-35.637 22.903-35.637 22.903s23.13 21.641 14.203 39.91c-8.927 18.27-40.213 13.321-40.213 13.321s17.022 26.713 3.8317 42.189-42.263 2.902-42.263 2.902z" fill="#502d16" stroke="#28170b" stroke-linecap="round" stroke-width="1.25"/>
   <path transform="matrix(.32545 0 0 .32545 100.37 81.564)" d="m567.17 371.42c0 105.34-85.393 190.73-190.73 190.73s-190.73-85.393-190.73-190.73 85.393-190.73 190.73-190.73 190.73 85.393 190.73 190.73z" fill="#c87137" stroke="#28170b" stroke-linecap="round" stroke-width="3.8409"/>
   <path transform="matrix(.32545 0 0 .32545 400.37 81.564)" d="m567.17 371.42c0 105.34-85.393 190.73-190.73 190.73s-190.73-85.393-190.73-190.73 85.393-190.73 190.73-190.73 190.73 85.393 190.73 190.73z" fill="#c87137" stroke="#28170b" stroke-linecap="round" stroke-width="3.8409"/>
   <path transform="matrix(.22102 0 0 .22102 433.6 126.43)" d="m567.17 371.42c0 105.34-85.393 190.73-190.73 190.73s-190.73-85.393-190.73-190.73 85.393-190.73 190.73-190.73 190.73 85.393 190.73 190.73z" fill="#784421" stroke="#28170b" stroke-linecap="round" stroke-width="5.6555"/>
   <path transform="matrix(.22102 0 0 .22102 143.6 126.43)" d="m567.17 371.42c0 105.34-85.393 190.73-190.73 190.73s-190.73-85.393-190.73-190.73 85.393-190.73 190.73-190.73 190.73 85.393 190.73 190.73z" fill="#784421" stroke="#28170b" stroke-linecap="round" stroke-width="5.6555"/>
   <path d="m516.03 514.93s4.2528 30.07-6.053 37.329c-10.306 7.2588-37.187-6.8734-37.187-6.8734s1.8274 28.217-15.146 34.651c-16.974 6.4337-34.309-15.905-34.309-15.905s-5.2474 27.785-23.288 29.796c-18.04 2.0104-29.276-23.938-29.276-23.938s-11.993 25.607-29.966 23.068c-17.974-2.5392-22.403-30.467-22.403-30.467s-23.11 19.703-34.761 14.891-14.122-35.081-14.122-35.081-22.846 16.663-37.373 5.7786-4.9544-37.491-4.9544-37.491-29.744 6.1325-37.636-3.6972c-7.8916-9.8297 4.5248-37.545 4.5248-37.545s-28.047 3.5956-35.534-12.941c-7.4868-16.536 13.72-35.24 13.72-35.24s-28.06-3.4924-31.199-21.371c-3.1392-17.879 22.053-30.721 22.053-30.721s-26.31-10.361-24.904-28.458c1.4056-18.098 29-24.272 29-24.272s-22.907-16.578-17.045-33.758c5.8621-17.179 34.125-16.297 34.125-16.297s-18.064-21.754-8.1138-36.936c9.9503-15.182 37.106-7.2987 37.106-7.2987s-12.087-25.563 1.3267-37.794c13.413-12.23 37.755 2.1584 37.755 2.1584s-5.3495-27.766 10.684-36.276c16.033-8.5103 36.032 11.48 36.032 11.48s1.7236-28.224 19.37-32.48c17.646-4.2556 32.045 20.08 32.045 20.08s8.6885-26.909 26.839-26.642c18.15 0.2665 26.045 27.419 26.045 27.419s15.107-23.902 32.621-19.131c17.514 4.7719 18.408 33.034 18.408 33.034s20.577-19.394 36.354-10.417c15.777 8.9774 9.6142 36.574 9.6142 36.574s28.741-9.8121 37.802-1.049c9.0614 8.7631 0.21654 37.816 0.21654 37.816s27.375-7.0824 36.875 8.385c9.5003 15.467-9.1948 36.682-9.1948 36.682s28.276-0.052 33.632 17.292c5.3552 17.344-18.028 33.243-18.028 33.243s27.401 6.9817 28.275 25.113c0.87367 18.131-25.729 27.715-25.729 27.715s24.804 13.577 21.141 31.355c-3.6628 17.779-31.813 20.446-31.813 20.446s20.648 19.319 12.679 35.628c-7.9691 16.309-35.898 11.892-35.898 11.892s15.195 23.847 3.4205 37.662c-11.775 13.815-37.728 2.5906-37.728 2.5906z" fill="#502d16"/>
   <path transform="matrix(.8224 0 0 .89587 62.858 18.816)" d="m567.17 371.42c0 105.34-85.393 190.73-190.73 190.73s-190.73-85.393-190.73-190.73 85.393-190.73 190.73-190.73 190.73 85.393 190.73 190.73z" fill="#a05a2c" stroke="#28170b" stroke-linecap="round"/>
   <path d="m330.01 252.57c-24.088 0.01-49.122 30.617-59.637 53.679-11.397 24.997-14.313 64.15 6.4344 82.157 21.405 18.578 67.267 16.89 84.898-5.3024 27.014-34.004 18.813-112.23-21.448-128.51-3.3568-1.3575-6.8062-2.0269-10.247-2.0256zm96.217 0c-3.4411-1e-3 -6.8906 0.66814-10.247 2.0256-40.261 16.282-48.462 94.504-21.448 128.51 17.631 22.193 63.492 23.881 84.898 5.3024 20.748-18.007 17.831-57.16 6.4343-82.157-10.515-23.062-35.549-53.67-59.637-53.679z" fill="#fff" stroke="#000" stroke-width="1.25"/>
   <path transform="matrix(.77465 0 0 .97585 88.219 -22.245)" d="m494.63 510.53c0 34.741-54.078 62.904-120.79 62.904-66.708 0-120.79-28.163-120.79-62.904s54.078-62.904 120.79-62.904c66.708 0 120.79 28.163 120.79 62.904z" fill="#d38d5f" stroke="#28170b" stroke-linecap="round" stroke-width="1.1502"/>
   <path transform="matrix(3.4812 -.13691 .35662 3.2748 -1113.3 -1053.3)" d="m390.42 486.68c-3.5663 6.4732-11.363 8.6281-17.414 4.813-2.3321-1.4704-4.1648-3.6984-5.2315-6.36l11.689-5.3608z" fill="#500"/>
   <path transform="matrix(.48547 0 0 1 278.49 157.15)" d="m133.35 359.1c-11.873-0.75633-22.096-17.647-28.254-27.827-5.3889-8.9082-14.642-24.884-8.8735-33.551 6.5913-9.9039 26.331-10.312 38.225-10.555 10.409-0.2128 28.871-0.23846 33.493 9.0908 5.2813 10.66-4.2351 27.959-9.9717 38.382-5.0203 9.121-14.229 25.122-24.619 24.46z" fill="#f9f9f9" stroke="#28170b" stroke-linecap="round" stroke-width="1.3"/>
   <path transform="matrix(.48547 0 0 1 355.41 155.96)" d="m133.35 359.1c-11.873-0.75633-22.096-17.647-28.254-27.827-5.3889-8.9082-14.642-24.884-8.8735-33.551 6.5913-9.9039 26.331-10.312 38.225-10.555 10.409-0.2128 28.871-0.23846 33.493 9.0908 5.2813 10.66-4.2351 27.959-9.9717 38.382-5.0203 9.121-14.229 25.122-24.619 24.46z" fill="#f9f9f9" stroke="#28170b" stroke-linecap="round" stroke-width="1.3"/>
   <path d="m375.73 417.37c-50.739-0.98494-123.68-38.196-157.5-13.573-33.826 24.624-17.046 89.815 26.854 105.79 43.899 15.979 99.267-44.126 134.07-43.436 34.804 0.69048 106.24 64.96 151.96 25.612 43.34-37.428 32.769-102.31-39.111-92.463-71.88 9.8494-116.28 18.065-116.28 18.065z" fill="#d38d5f" stroke="#000"/>
   <path d="m281.14 461.19c-2.8715 40.152 109.55 63.786 98.008-22.242-13.441 82.998 94.02 63.998 96.039 29.352" fill="#d38d5f" stroke="#000" stroke-width="2"/>
   <path transform="matrix(1 0 0 .67908 28.115 141.51)" d="m381.46 386.48c7.2455 10.468-0.18467 21.762-6.3641 32.893-6.8657 12.367-12.343 25.044-26.441 26.201-12.689 1.0407-18.754-11.041-25.304-21.958-7.2773-12.129-15.517-23.212-9.47-35.999 5.443-11.509 18.939-10.721 31.668-10.935 14.143-0.23765 27.861-1.8326 35.911 9.7982z" fill="#502d16" stroke="#28170b" stroke-linecap="round" stroke-width="1.2135"/>
   <path d="m350.64 312.5c-10.176 4e-3 -20.765 12.915-25.207 22.658-4.8148 10.56-6.0416 27.103 2.7236 34.711 9.0432 7.8489 28.422 7.1737 35.87-2.202 11.413-14.366 7.9112-47.419-9.0979-54.297-1.4181-0.57348-2.8344-0.86975-4.2882-0.86922zm53.312 0c-1.4538-5.3e-4 -2.87 0.29574-4.2882 0.86922-17.009 6.8786-20.51 39.932-9.0979 54.297 7.4484 9.3757 26.827 10.051 35.87 2.202 8.7652-7.6076 7.5383-24.151 2.7236-34.711-4.4421-9.7431-15.031-22.654-25.207-22.658z" stroke="#000" stroke-width="1.3768"/>
   <path d="m425.65 167.96c1.5414 8.8486-13.084 14.949-13.084 14.949s11.464 9.8426 6.5951 17.772c-4.8686 7.9292-20.917 5.5537-20.917 5.5537s2.4718 13.693-6.9473 17.674c-9.419 3.9811-20.761-5.9632-20.761-5.9632s-7.4644 12.314-17.836 10.826c-10.372-1.4876-12.674-15.202-12.674-15.202s-14.549 6.2307-21.912-0.15745c-7.3627-6.3882 0.25316-18.635 0.25316-18.635s-16.077-2.2322-17.618-11.081c-1.5414-8.8487 13.084-14.949 13.084-14.949s-11.464-9.8426-6.5951-17.772c4.8686-7.9292 20.917-5.5537 20.917-5.5537s-2.4718-13.693 6.9473-17.674c9.4191-3.9811 20.761 5.9632 20.761 5.9632s7.4644-12.314 17.836-10.826c10.372 1.4876 12.674 15.202 12.674 15.202s14.549-6.2307 21.912 0.15747c7.3627 6.3882-0.25316 18.635-0.25316 18.635s16.077 2.2323 17.618 11.081z" fill="#502d16"/>
   <path d="m273.59 422.98s-27.21-20.112-74.532-24.844c-47.322-4.7322-75.715 16.563-75.715 16.563" fill="none" stroke="#000" stroke-width="2"/>
   <path d="m272.7 461.78s-33.801-1.5413-75.734 20.894-53.647 55.938-53.647 55.938" fill="none" stroke="#000" stroke-width="2"/>
   <path d="m274.33 440.9s-31.499-12.356-78.426-4.6364c-46.927 7.7191-68.816 35.657-68.816 35.657" fill="none" stroke="#000" stroke-width="2"/>
   <path d="m478.09 422.98s27.21-20.112 74.532-24.844c47.322-4.7322 75.715 16.563 75.715 16.563" fill="none" stroke="#000" stroke-width="2"/>
   <path d="m478.98 461.78s33.801-1.5413 75.734 20.894 53.647 55.938 53.647 55.938" fill="none" stroke="#000" stroke-width="2"/>
   <path d="m477.35 440.9s31.499-12.356 78.426-4.6364c46.927 7.7191 68.816 35.657 68.816 35.657" fill="none" stroke="#000" stroke-width="2"/>
   <path d="m347.81 238.43s-10.647-9.4643-22.478-8.2813c-11.83 1.183-16.563 15.38-16.563 15.38s5.9152-10.647 15.38-10.647c9.4643 0 23.661 3.5491 23.661 3.5491z" stroke="#000" stroke-width="1px"/>
   <path d="m404.77 238.43s10.647-9.4643 22.478-8.2813c11.83 1.183 16.563 15.38 16.563 15.38s-5.9152-10.647-15.38-10.647c-9.4643 0-23.661 3.5491-23.661 3.5491z" stroke="#000" stroke-width="1px"/>
   <path transform="translate(2.0703 7.394)" d="m292.51 450.19c0 0.32669-0.26483 0.59152-0.59152 0.59152s-0.59152-0.26483-0.59152-0.59152 0.26483-0.59152 0.59152-0.59152 0.59152 0.26483 0.59152 0.59152z" stroke="#000" stroke-linecap="round"/>
   <path transform="translate(142.68 2.079)" d="m292.51 450.19c0 0.32669-0.26483 0.59152-0.59152 0.59152s-0.59152-0.26483-0.59152-0.59152 0.26483-0.59152 0.59152-0.59152 0.59152 0.26483 0.59152 0.59152z" stroke="#000" stroke-linecap="round"/>
   <path transform="translate(165.03 -21.59)" d="m292.51 450.19c0 0.32669-0.26483 0.59152-0.59152 0.59152s-0.59152-0.26483-0.59152-0.59152 0.26483-0.59152 0.59152-0.59152 0.59152 0.26483 0.59152 0.59152z" stroke="#000" stroke-linecap="round"/>
   <path transform="translate(147.29 34.9)" d="m292.51 450.19c0 0.32669-0.26483 0.59152-0.59152 0.59152s-0.59152-0.26483-0.59152-0.59152 0.26483-0.59152 0.59152-0.59152 0.59152 0.26483 0.59152 0.59152z" stroke="#000" stroke-linecap="round"/>
   <path transform="translate(28.494 12.355)" d="m292.51 450.19c0 0.32669-0.26483 0.59152-0.59152 0.59152s-0.59152-0.26483-0.59152-0.59152 0.26483-0.59152 0.59152-0.59152 0.59152 0.26483 0.59152 0.59152z" stroke="#000" stroke-linecap="round"/>
   <path transform="translate(59.744 30.168)" d="m292.51 450.19c0 0.32669-0.26483 0.59152-0.59152 0.59152s-0.59152-0.26483-0.59152-0.59152 0.26483-0.59152 0.59152-0.59152 0.59152 0.26483 0.59152 0.59152z" stroke="#000" stroke-linecap="round"/>
   <path transform="translate(51.462 -14.196)" d="m292.51 450.19c0 0.32669-0.26483 0.59152-0.59152 0.59152s-0.59152-0.26483-0.59152-0.59152 0.26483-0.59152 0.59152-0.59152 0.59152 0.26483 0.59152 0.59152z" stroke="#000" stroke-linecap="round"/>
   <path transform="translate(107.07 23.957)" d="m292.51 450.19c0 0.32669-0.26483 0.59152-0.59152 0.59152s-0.59152-0.26483-0.59152-0.59152 0.26483-0.59152 0.59152-0.59152 0.59152 0.26483 0.59152 0.59152z" stroke="#000" stroke-linecap="round"/>
   <path transform="translate(121.85 -18.337)" d="m292.51 450.19c0 0.32669-0.26483 0.59152-0.59152 0.59152s-0.59152-0.26483-0.59152-0.59152 0.26483-0.59152 0.59152-0.59152 0.59152 0.26483 0.59152 0.59152z" stroke="#000" stroke-linecap="round"/>
   <path transform="translate(11.83 -14.196)" d="m292.51 450.19c0 0.32669-0.26483 0.59152-0.59152 0.59152s-0.59152-0.26483-0.59152-0.59152 0.26483-0.59152 0.59152-0.59152 0.59152 0.26483 0.59152 0.59152z" stroke="#000" stroke-linecap="round"/>
  </g>
 </g>
</svg>
